<?xml version="1.0" encoding="UTF-8" standalone="no"?>
<svg
   xmlns:dc="http://purl.org/dc/elements/1.1/"
   xmlns:cc="http://creativecommons.org/ns#"
   xmlns:rdf="http://www.w3.org/1999/02/22-rdf-syntax-ns#"
   xmlns:svg="http://www.w3.org/2000/svg"
   xmlns="http://www.w3.org/2000/svg"
   xmlns:xlink="http://www.w3.org/1999/xlink"
   xmlns:sodipodi="http://sodipodi.sourceforge.net/DTD/sodipodi-0.dtd"
   xmlns:inkscape="http://www.inkscape.org/namespaces/inkscape"
   version="1.1"
   width="64"
   height="64"
   id="svg3130"
   inkscape:version="0.91 r13725"
   sodipodi:docname="com.github.robertsanseries.ciano.svg">
  <sodipodi:namedview
     pagecolor="#ffffff"
     bordercolor="#666666"
     borderopacity="1"
     objecttolerance="10"
     gridtolerance="10"
     guidetolerance="10"
     inkscape:pageopacity="0"
     inkscape:pageshadow="2"
     inkscape:window-width="1920"
     inkscape:window-height="962"
     id="namedview34"
     showgrid="false"
     inkscape:zoom="22.097087"
     inkscape:cx="19.475999"
     inkscape:cy="20.913078"
     inkscape:window-x="0"
     inkscape:window-y="30"
     inkscape:window-maximized="1"
     inkscape:current-layer="svg3130" />
  <defs
     id="defs3132">
    <linearGradient
       id="linearGradient5769">
      <stop
         offset="0"
         style="stop-color:#ffffff;stop-opacity:1"
         id="stop5771" />
      <stop
         offset="0"
         style="stop-color:#ffffff;stop-opacity:0.23529412"
         id="stop5773" />
      <stop
         offset="1"
         style="stop-color:#ffffff;stop-opacity:0.15686275"
         id="stop5775" />
      <stop
         offset="1"
         style="stop-color:#ffffff;stop-opacity:0.39215687"
         id="stop5777" />
    </linearGradient>
    <linearGradient
       id="linearGradient5736">
      <stop
         offset="0"
         style="stop-color:#586e75;stop-opacity:1"
         id="stop5738" />
      <stop
         offset="1"
         style="stop-color:#073642;stop-opacity:1"
         id="stop5740" />
    </linearGradient>
    <linearGradient
       id="linearGradient4337">
      <stop
         offset="0"
         style="stop-color:#fdf6e3;stop-opacity:1"
         id="stop4339" />
      <stop
         offset="1"
         style="stop-color:#eee8d5;stop-opacity:1"
         id="stop4341" />
    </linearGradient>
    <linearGradient
       x1="41.45314"
       y1="-3.7500122"
       x2="41.45314"
       y2="42.059517"
       id="linearGradient4277-0"
       xlink:href="#linearGradient5769"
       gradientUnits="userSpaceOnUse"
       gradientTransform="matrix(1.4324324,0,0,1.135135,-0.37882,10.25677)" />
    <linearGradient
       x1="25.132275"
       y1="0.98520643"
       x2="25.132275"
       y2="47.013336"
       id="linearGradient4285-6"
       xlink:href="#linearGradient4337"
       gradientUnits="userSpaceOnUse"
       gradientTransform="matrix(1.5714252,0,0,0.95604679,-3.7142,13.088186)" />
    <radialGradient
       cx="19.53446"
       cy="40.430397"
       r="23.929714"
       fx="19.53446"
       fy="40.430397"
       id="radialGradient4291-0"
       xlink:href="#radialGradient3109-470-9-6"
       gradientUnits="userSpaceOnUse"
       gradientTransform="matrix(1.0029562,1.769214e-7,-1.4743171e-8,0.0835781,14.407338,56.620897)" />
    <radialGradient
       cx="62.625"
       cy="4.625"
       r="10.625"
       id="radialGradient3109-470-9-6"
       gradientUnits="userSpaceOnUse"
       gradientTransform="matrix(1.1294118,0,0,0.2823525,-58.729414,19.694118)">
      <stop
         id="stop5165-6-1"
         style="stop-color:#000000;stop-opacity:1"
         offset="0" />
      <stop
         id="stop5167-3-5"
         style="stop-color:#000000;stop-opacity:0"
         offset="1" />
    </radialGradient>
    <linearGradient
       xlink:href="#linearGradient5736"
       id="linearGradient5857"
       gradientUnits="userSpaceOnUse"
       gradientTransform="matrix(1.5163817,0.4032233,-0.24859898,0.92087263,3.95455,0.18711795)"
       x1="17.233864"
       y1="-1.6629155"
       x2="26.343443"
       y2="54.477512" />
    <linearGradient
       y2="47.013336"
       x2="25.132275"
       y1="0.98520643"
       x1="25.132275"
       gradientTransform="matrix(1.5714252,0,0,0.95604679,-5.7142,12.90359)"
       gradientUnits="userSpaceOnUse"
       id="linearGradient4523"
       xlink:href="#linearGradient5736" />
    <linearGradient
       y2="42.059517"
       x2="41.45314"
       y1="-3.7500122"
       x1="41.45314"
       gradientTransform="matrix(1.4324324,0,0,1.135135,-4.37882,8.25677)"
       gradientUnits="userSpaceOnUse"
       id="linearGradient4677"
       xlink:href="#linearGradient5769" />
    <radialGradient
       gradientTransform="matrix(0.24871944,0,0,0.07817047,4.9510232,45.721368)"
       gradientUnits="userSpaceOnUse"
       xlink:href="#linearGradient3820-7-2-1"
       id="radialGradient3025-3"
       fy="186.17059"
       fx="99.157013"
       r="62.769119"
       cy="186.17059"
       cx="99.157013" />
    <linearGradient
       id="linearGradient3820-7-2-1">
      <stop
         offset="0"
         style="stop-color:#3d3d3d;stop-opacity:1"
         id="stop3822-2-6-3" />
      <stop
         offset="0.5"
         style="stop-color:#686868;stop-opacity:0.49803922"
         id="stop3864-8-7-7" />
      <stop
         offset="1"
         style="stop-color:#686868;stop-opacity:0"
         id="stop3824-1-2-5" />
    </linearGradient>
    <linearGradient
       gradientTransform="matrix(1.0539177,0,0,1.0539175,-45.601218,13.275564)"
       gradientUnits="userSpaceOnUse"
       xlink:href="#linearGradient4011"
       id="linearGradient3019-3"
       y2="44.340794"
       x2="71.204407"
       y1="6.2375584"
       x1="71.204407" />
    <linearGradient
       id="linearGradient4011">
      <stop
         offset="0"
         style="stop-color:#ffffff;stop-opacity:1"
         id="stop4013" />
      <stop
         offset="0.507761"
         style="stop-color:#ffffff;stop-opacity:0.23529412"
         id="stop4015" />
      <stop
         offset="0.83456558"
         style="stop-color:#ffffff;stop-opacity:0.15686275"
         id="stop4017" />
      <stop
         offset="1"
         style="stop-color:#ffffff;stop-opacity:0.39215687"
         id="stop4019" />
    </linearGradient>
    <linearGradient
       x1="167.98311"
       y1="6.8325434"
       x2="167.98311"
       y2="61.692036"
       id="linearGradient3012-1"
       xlink:href="#linearGradient5803-2-1"
       gradientUnits="userSpaceOnUse"
       gradientTransform="matrix(0,-0.71481667,0.71419586,0,6.571277,156.24964)" />
    <linearGradient
       id="linearGradient5803-2-1">
      <stop
         id="stop5805-1-6"
         style="stop-color:#fff5ef;stop-opacity:1"
         offset="0" />
      <stop
         id="stop5807-6-6"
         style="stop-color:#fef8dd;stop-opacity:1"
         offset="1" />
    </linearGradient>
  </defs>
  <metadata
     id="metadata3135">
    <rdf:RDF>
      <cc:Work
         rdf:about="">
        <dc:format>image/svg+xml</dc:format>
        <dc:type
           rdf:resource="http://purl.org/dc/dcmitype/StillImage" />
        <dc:title />
      </cc:Work>
    </rdf:RDF>
  </metadata>
  <rect
     transform="matrix(0.99421889,0.10737224,-0.1508069,0.98856324,0,0)"
     ry="1.7394974"
     y="5.6997962"
     x="18.479042"
     height="46.740448"
     width="41.184414"
     id="rect3412"
     style="fill:#37c8ab;fill-opacity:1;stroke:#2790a0;stroke-width:1.00047998;stroke-opacity:0.53289473;stroke-miterlimit:4;stroke-dasharray:none" />
  <rect
     ry="1.5573252"
     y="1.2548221"
     x="6.2548213"
     height="52.490356"
     width="43.490356"
     id="rect3414"
     style="opacity:1;fill:#8cd5ff;fill-opacity:1;stroke:#002e99;stroke-width:1;stroke-opacity:0.31372549;stroke-miterlimit:4;stroke-dasharray:none" />
  <path
     inkscape:connector-curvature="0"
     style="opacity:0.87699998;fill:url(#radialGradient3025-3);fill-opacity:1;stroke:none"
     id="path3818-0-5"
     d="m 45.225204,60.274406 a 15.611908,4.9066919 0 0 1 -31.223807,0 15.611908,4.9066919 0 1 1 31.223807,0 z" />
  <path
     inkscape:connector-curvature="0"
     style="color:#000000;display:inline;overflow:visible;visibility:visible;fill:#37c8ab;fill-opacity:1;fill-rule:nonzero;stroke:#2790a0;stroke-width:1;stroke-opacity:0.53289472;marker:none;enable-background:accumulate"
     id="path2555-9-6"
     d="M 30.000006,19.5 C 18.688816,19.5 9.5,28.688796 9.5,40.000004 9.5,51.311177 18.688816,60.5 30.000006,60.5 41.311179,60.5 50.500012,51.311177 50.5,40.000004 50.5,28.688796 41.311179,19.5 30.000006,19.5 Z" />
  <path
     inkscape:connector-curvature="0"
     style="color:#000000;display:inline;overflow:visible;visibility:visible;opacity:0.5;fill:none;stroke:url(#linearGradient3019-3);stroke-width:1.0050627;stroke-linecap:round;stroke-linejoin:round;stroke-miterlimit:4;stroke-dasharray:none;stroke-dashoffset:0;stroke-opacity:1;marker:none;enable-background:accumulate"
     id="path8655"
     d="m 49.497468,39.999321 c 0,10.768491 -8.729964,19.498148 -19.497212,19.498148 -10.768275,0 -19.497725,-8.729745 -19.497725,-19.498148 0,-10.768016 8.72945,-19.496789 19.497725,-19.496789 10.767248,0 19.497212,8.728773 19.497212,19.496789 l 0,0 z" />
  <path
     d="m 16.691642,40.404219 c 0,6.07424 4.173489,11.174461 9.795123,12.631581 a 1.0007968,1.0016667 0 0 0 1.255777,-0.974072 l 0,-2.985077 a 1.0007968,1.0016667 0 0 0 -0.690687,-0.942664 c -3.189884,-1.108909 -5.462634,-4.146369 -5.462634,-7.729768 0,-2.145431 0.917636,-4.010501 2.260397,-5.467412 l 3.17085,3.173603 a 1.0007968,1.0016667 0 0 0 1.726702,-0.722714 l 0,-9.049487 a 1.0007968,1.0016667 0 0 0 -1.004628,-1.005498 l -9.041628,0 a 1.0007968,1.0016667 0 0 0 -0.722085,1.728218 l 2.385999,2.388058 c -2.234768,2.341402 -3.673186,5.468774 -3.673186,8.955232 z m 15.069405,12.160248 a 1.0007968,1.0016667 0 0 0 1.004611,0.911227 l 9.041645,0 a 1.0007968,1.0016667 0 0 0 0.722081,-1.72819 l -2.982486,-2.985076 c 1.942994,-2.272512 3.265028,-5.13346 3.265028,-8.358209 0,-6.074275 -4.173468,-11.174455 -9.795086,-12.631587 a 1.0007968,1.0016667 0 0 0 -1.255793,0.974099 l 0,2.985052 a 1.0007968,1.0016667 0 0 0 0.690671,0.942651 c 3.189894,1.108948 5.462666,4.146384 5.462666,7.729785 0,1.880926 -0.748274,3.520884 -1.82088,4.901792 l -2.605755,-2.608008 a 1.0007968,1.0016667 0 0 0 -1.726702,0.722718 l 0,9.049473 a 1.0007968,1.0016667 0 0 0 0,0.0943 z"
     id="path4451"
     style="color:#000000;display:inline;overflow:visible;visibility:visible;opacity:0.06300001;fill:#000000;fill-opacity:1;fill-rule:nonzero;stroke:none;stroke-width:1;marker:none;enable-background:accumulate"
     inkscape:connector-curvature="0" />
  <path
     d="m 17.968618,40.404246 c 0,5.616021 3.850799,10.312046 9.041644,11.657507 l 0,-2.985081 c -3.585154,-1.246316 -6.153329,-4.661136 -6.153329,-8.672425 0,-2.789818 1.23959,-5.291729 3.202227,-6.975651 l 3.955732,3.959149 0,-9.049515 -9.041639,0 3.04527,3.04795 c -2.490214,2.203174 -4.049905,5.428923 -4.049905,9.018066 z m 15.069399,12.065977 9.041651,0 -3.547598,-3.550651 c 2.189557,-2.17707 3.547598,-5.180802 3.547598,-8.515326 0,-5.616031 -3.850802,-10.312049 -9.041651,-11.657508 l 0,2.985084 c 3.585139,1.246316 6.153325,4.661144 6.153325,8.672424 0,2.531536 -1.044067,4.811666 -2.699928,6.472909 l -3.453397,-3.456393 0,9.049461 z"
     id="path4285-6"
     style="color:#000000;display:inline;overflow:visible;visibility:visible;opacity:0.2;fill:#000000;fill-opacity:1;fill-rule:nonzero;stroke:none;stroke-width:1;marker:none;enable-background:accumulate"
     inkscape:connector-curvature="0" />
  <path
     d="m 18.483423,40.40423 c 0,5.616024 3.850799,10.312049 9.041644,11.657485 l 0,-2.985048 c -3.585154,-1.246327 -6.153329,-4.66116 -6.153329,-8.672437 0,-2.789795 1.23959,-5.291718 3.202227,-6.975644 l 3.955732,3.959146 0,-9.049502 -9.041639,0 3.04527,3.04793 c -2.490214,2.203185 -4.049905,5.428929 -4.049905,9.01807 z m 15.069399,12.065992 9.041651,0 -3.547598,-3.550657 c 2.189557,-2.177083 3.547598,-5.180808 3.547598,-8.515335 0,-5.616017 -3.850802,-10.312024 -9.041651,-11.657502 l 0,2.985068 c 3.585139,1.246329 6.153325,4.661152 6.153325,8.672434 0,2.531538 -1.044067,4.811641 -2.699928,6.472895 l -3.453397,-3.45638 0,9.049477 z"
     id="path4285"
     style="color:#000000;display:inline;overflow:visible;visibility:visible;fill:#fafafa;fill-opacity:1;fill-rule:nonzero;stroke:none;stroke-width:1;marker:none;enable-background:accumulate"
     inkscape:connector-curvature="0" />
</svg>
