<?xml version="1.0" encoding="UTF-8" standalone="no"?>
<svg
   xmlns:dc="http://purl.org/dc/elements/1.1/"
   xmlns:cc="http://creativecommons.org/ns#"
   xmlns:rdf="http://www.w3.org/1999/02/22-rdf-syntax-ns#"
   xmlns:svg="http://www.w3.org/2000/svg"
   xmlns="http://www.w3.org/2000/svg"
   xmlns:xlink="http://www.w3.org/1999/xlink"
   xmlns:sodipodi="http://sodipodi.sourceforge.net/DTD/sodipodi-0.dtd"
   xmlns:inkscape="http://www.inkscape.org/namespaces/inkscape"
   version="1.1"
   width="64"
   height="64"
   id="svg3130"
   inkscape:version="0.91 r13725"
   sodipodi:docname="com.github.robertsanseries.ciano.svg">
  <sodipodi:namedview
     pagecolor="#ffffff"
     bordercolor="#666666"
     borderopacity="1"
     objecttolerance="10"
     gridtolerance="10"
     guidetolerance="10"
     inkscape:pageopacity="0"
     inkscape:pageshadow="2"
     inkscape:window-width="1366"
     inkscape:window-height="705"
     id="namedview34"
     showgrid="false"
     inkscape:zoom="7.8125"
     inkscape:cx="32"
     inkscape:cy="32"
     inkscape:window-x="0"
     inkscape:window-y="30"
     inkscape:window-maximized="1"
     inkscape:current-layer="svg3130" />
  <defs
     id="defs3132">
    <linearGradient
       id="linearGradient5769">
      <stop
         offset="0"
         style="stop-color:#ffffff;stop-opacity:1"
         id="stop5771" />
      <stop
         offset="0"
         style="stop-color:#ffffff;stop-opacity:0.23529412"
         id="stop5773" />
      <stop
         offset="1"
         style="stop-color:#ffffff;stop-opacity:0.15686275"
         id="stop5775" />
      <stop
         offset="1"
         style="stop-color:#ffffff;stop-opacity:0.39215687"
         id="stop5777" />
    </linearGradient>
    <linearGradient
       id="linearGradient5736">
      <stop
         offset="0"
         style="stop-color:#586e75;stop-opacity:1"
         id="stop5738" />
      <stop
         offset="1"
         style="stop-color:#073642;stop-opacity:1"
         id="stop5740" />
    </linearGradient>
    <linearGradient
       id="linearGradient4337">
      <stop
         offset="0"
         style="stop-color:#fdf6e3;stop-opacity:1"
         id="stop4339" />
      <stop
         offset="1"
         style="stop-color:#eee8d5;stop-opacity:1"
         id="stop4341" />
    </linearGradient>
    <linearGradient
       x1="41.45314"
       y1="-3.7500122"
       x2="41.45314"
       y2="42.059517"
       id="linearGradient4277-0"
       xlink:href="#linearGradient5769"
       gradientUnits="userSpaceOnUse"
       gradientTransform="matrix(1.4324324,0,0,1.135135,-0.37882,10.25677)" />
    <linearGradient
       x1="25.132275"
       y1="0.98520643"
       x2="25.132275"
       y2="47.013336"
       id="linearGradient4285-6"
       xlink:href="#linearGradient4337"
       gradientUnits="userSpaceOnUse"
       gradientTransform="matrix(1.5714252,0,0,0.95604679,-3.7142,13.088186)" />
    <radialGradient
       cx="19.53446"
       cy="40.430397"
       r="23.929714"
       fx="19.53446"
       fy="40.430397"
       id="radialGradient4291-0"
       xlink:href="#radialGradient3109-470-9-6"
       gradientUnits="userSpaceOnUse"
       gradientTransform="matrix(1.0029562,1.769214e-7,-1.4743171e-8,0.0835781,14.407338,56.620897)" />
    <radialGradient
       cx="62.625"
       cy="4.625"
       r="10.625"
       id="radialGradient3109-470-9-6"
       gradientUnits="userSpaceOnUse"
       gradientTransform="matrix(1.1294118,0,0,0.2823525,-58.729414,19.694118)">
      <stop
         id="stop5165-6-1"
         style="stop-color:#000000;stop-opacity:1"
         offset="0" />
      <stop
         id="stop5167-3-5"
         style="stop-color:#000000;stop-opacity:0"
         offset="1" />
    </radialGradient>
    <linearGradient
       xlink:href="#linearGradient5736"
       id="linearGradient5857"
       gradientUnits="userSpaceOnUse"
       gradientTransform="matrix(1.5163817,0.4032233,-0.24859898,0.92087263,3.95455,0.18711795)"
       x1="17.233864"
       y1="-1.6629155"
       x2="26.343443"
       y2="54.477512" />
    <linearGradient
       y2="47.013336"
       x2="25.132275"
       y1="0.98520643"
       x1="25.132275"
       gradientTransform="matrix(1.5714252,0,0,0.95604679,-5.7142,12.90359)"
       gradientUnits="userSpaceOnUse"
       id="linearGradient4523"
       xlink:href="#linearGradient5736" />
    <linearGradient
       y2="42.059517"
       x2="41.45314"
       y1="-3.7500122"
       x1="41.45314"
       gradientTransform="matrix(1.4324324,0,0,1.135135,-4.37882,8.25677)"
       gradientUnits="userSpaceOnUse"
       id="linearGradient4677"
       xlink:href="#linearGradient5769" />
    <radialGradient
       gradientTransform="matrix(0.24871944,0,0,0.07817047,4.9510232,45.721368)"
       gradientUnits="userSpaceOnUse"
       xlink:href="#linearGradient3820-7-2-1"
       id="radialGradient3025-3"
       fy="186.17059"
       fx="99.157013"
       r="62.769119"
       cy="186.17059"
       cx="99.157013" />
    <linearGradient
       id="linearGradient3820-7-2-1">
      <stop
         offset="0"
         style="stop-color:#3d3d3d;stop-opacity:1"
         id="stop3822-2-6-3" />
      <stop
         offset="0.5"
         style="stop-color:#686868;stop-opacity:0.49803922"
         id="stop3864-8-7-7" />
      <stop
         offset="1"
         style="stop-color:#686868;stop-opacity:0"
         id="stop3824-1-2-5" />
    </linearGradient>
    <linearGradient
       gradientTransform="matrix(1.0598507,0,0,1.0589304,-46.002688,13.300723)"
       gradientUnits="userSpaceOnUse"
       xlink:href="#linearGradient4011"
       id="linearGradient3019-3"
       y2="44.340794"
       x2="71.204407"
       y1="6.2375584"
       x1="71.204407" />
    <linearGradient
       id="linearGradient4011">
      <stop
         offset="0"
         style="stop-color:#ffffff;stop-opacity:1"
         id="stop4013" />
      <stop
         offset="0.507761"
         style="stop-color:#ffffff;stop-opacity:0.23529412"
         id="stop4015" />
      <stop
         offset="0.83456558"
         style="stop-color:#ffffff;stop-opacity:0.15686275"
         id="stop4017" />
      <stop
         offset="1"
         style="stop-color:#ffffff;stop-opacity:0.39215687"
         id="stop4019" />
    </linearGradient>
    <linearGradient
       x1="167.98311"
       y1="6.8325434"
       x2="167.98311"
       y2="61.692036"
       id="linearGradient3012-1"
       xlink:href="#linearGradient5803-2-1"
       gradientUnits="userSpaceOnUse"
       gradientTransform="matrix(0.71481667,0,0,0.71419586,-85.306469,16.436555)" />
    <linearGradient
       id="linearGradient5803-2-1">
      <stop
         id="stop5805-1-6"
         style="stop-color:#fff5ef;stop-opacity:1"
         offset="0" />
      <stop
         id="stop5807-6-6"
         style="stop-color:#fef8dd;stop-opacity:1"
         offset="1" />
    </linearGradient>
  </defs>
  <metadata
     id="metadata3135">
    <rdf:RDF>
      <cc:Work
         rdf:about="">
        <dc:format>image/svg+xml</dc:format>
        <dc:type
           rdf:resource="http://purl.org/dc/dcmitype/StillImage" />
        <dc:title />
      </cc:Work>
    </rdf:RDF>
  </metadata>
  <rect
     transform="matrix(0.99421889,0.10737224,-0.1508069,0.98856324,0,0)"
     ry="1.7394974"
     y="5.6997962"
     x="18.479042"
     height="46.740448"
     width="41.184414"
     id="rect3412"
     style="fill:#37c8ab;fill-opacity:1;stroke:#000000;stroke-width:0.53485036;stroke-opacity:0.3137255" />
  <rect
     ry="1.5489292"
     y="0.86875075"
     x="6.2814941"
     height="52.207367"
     width="43.476665"
     id="rect3414"
     style="opacity:1;fill:#80e5ff;fill-opacity:1;stroke:#000000;stroke-width:0.50964284;stroke-opacity:0.3137255" />
  <path
     inkscape:connector-curvature="0"
     style="opacity:0.87699998;fill:url(#radialGradient3025-3);fill-opacity:1;stroke:none"
     id="path3818-0-5"
     d="m 45.225204,60.274406 a 15.611908,4.9066919 0 0 1 -31.223807,0 15.611908,4.9066919 0 1 1 31.223807,0 z" />
  <path
     inkscape:connector-curvature="0"
     style="color:#000000;display:inline;overflow:visible;visibility:visible;fill:#37c8ab;fill-opacity:0.73046875;fill-rule:nonzero;stroke:none;stroke-width:1;marker:none;enable-background:accumulate"
     id="path2555-9-6"
     d="m 30.024123,19.30026 c -11.373393,0 -20.6127413,9.231302 -20.6127413,20.594834 0,11.363496 9.2393483,20.594825 20.6127413,20.594825 11.373376,0 20.612741,-9.231329 20.612729,-20.594825 0,-11.363532 -9.239353,-20.594834 -20.612729,-20.594834 z" />
  <path
     inkscape:connector-curvature="0"
     style="color:#000000;display:inline;overflow:visible;visibility:visible;opacity:0.5;fill:none;stroke:url(#linearGradient3019-3);stroke-width:1.0050627;stroke-linecap:round;stroke-linejoin:round;stroke-miterlimit:4;stroke-dasharray:none;stroke-dashoffset:0;stroke-opacity:1;marker:none;enable-background:accumulate"
     id="path8655"
     d="m 49.631356,40.151589 c 0,10.81971 -8.77911,19.590889 -19.606972,19.590889 -10.828895,0 -19.607487,-8.771267 -19.607487,-19.590889 0,-10.819233 8.778592,-19.589524 19.607487,-19.589524 10.827862,0 19.606972,8.770291 19.606972,19.589524 l 0,0 z" />
  <path
     inkscape:connector-curvature="0"
     style="color:#000000;clip-rule:nonzero;display:inline;overflow:visible;visibility:visible;opacity:0.5;isolation:auto;mix-blend-mode:normal;color-interpolation:sRGB;color-interpolation-filters:linearRGB;solid-color:#000000;solid-opacity:1;fill:#000000;fill-opacity:0;fill-rule:nonzero;stroke:#00537d;stroke-width:1.0050627;stroke-linecap:round;stroke-linejoin:round;stroke-miterlimit:4;stroke-dasharray:none;stroke-dashoffset:0;stroke-opacity:1;marker:none;color-rendering:auto;image-rendering:auto;shape-rendering:auto;text-rendering:auto;enable-background:accumulate"
     id="path2555-6"
     d="m 30.024123,19.557429 c -11.373393,0 -20.6127413,9.231326 -20.6127413,20.594843 0,11.363519 9.2393483,20.594844 20.6127413,20.594844 11.373376,0 20.612741,-9.231325 20.612729,-20.594844 0,-11.363517 -9.239353,-20.594843 -20.612729,-20.594843 z" />
  <path
     d="m 29.766711,27.329116 c -6.07424,0 -11.174461,4.173489 -12.631581,9.795123 a 1.0016667,1.0007968 0 0 0 0.974072,1.255777 l 2.985077,0 a 1.0016667,1.0007968 0 0 0 0.942664,-0.690687 c 1.108909,-3.189884 4.146369,-5.462634 7.729768,-5.462634 2.145431,0 4.010501,0.917636 5.467412,2.260397 l -3.173603,3.17085 a 1.0016667,1.0007968 0 0 0 0.722714,1.726702 l 9.049487,0 a 1.0016667,1.0007968 0 0 0 1.005498,-1.004628 l 0,-9.041628 a 1.0016667,1.0007968 0 0 0 -1.728218,-0.722085 l -2.388058,2.385999 C 36.380541,28.767534 33.253169,27.329116 29.766711,27.329116 Z M 17.606463,42.398521 a 1.0016667,1.0007968 0 0 0 -0.911227,1.004611 l 0,9.041645 a 1.0016667,1.0007968 0 0 0 1.72819,0.722081 l 2.985076,-2.982486 c 2.272512,1.942994 5.13346,3.265028 8.358209,3.265028 6.074275,0 11.174455,-4.173468 12.631587,-9.795086 a 1.0016667,1.0007968 0 0 0 -0.974099,-1.255793 l -2.985052,0 a 1.0016667,1.0007968 0 0 0 -0.942651,0.690671 c -1.108948,3.189894 -4.146384,5.462666 -7.729785,5.462666 -1.880926,0 -3.520884,-0.748274 -4.901792,-1.82088 l 2.608008,-2.605755 a 1.0016667,1.0007968 0 0 0 -0.722718,-1.726702 l -9.049473,0 a 1.0016667,1.0007968 0 0 0 -0.0943,0 z"
     id="path4451"
     style="color:#000000;display:inline;overflow:visible;visibility:visible;opacity:0.06300001;fill:#000000;fill-opacity:1;fill-rule:nonzero;stroke:none;stroke-width:1;marker:none;enable-background:accumulate"
     inkscape:connector-curvature="0" />
  <path
     d="m 30.024123,28.348701 c -5.61602,0 -10.312045,3.850799 -11.657506,9.041644 l 2.98508,0 c 1.246317,-3.585154 4.661137,-6.153329 8.672426,-6.153329 2.789818,0 5.291729,1.23959 6.975651,3.202227 l -3.959149,3.955732 9.049515,0 0,-9.041639 -3.04795,3.04527 C 36.839015,29.908392 33.613267,28.348701 30.024123,28.348701 Z M 17.958147,43.4181 l 0,9.041651 3.55065,-3.547598 c 2.17707,2.189557 5.180802,3.547598 8.515326,3.547598 5.616032,0 10.312049,-3.850802 11.657509,-9.041651 l -2.985084,0 c -1.246317,3.585139 -4.661144,6.153325 -8.672425,6.153325 -2.531535,0 -4.811665,-1.044067 -6.472908,-2.699928 l 3.456393,-3.453397 -9.049461,0 z"
     id="path4285-6"
     style="color:#000000;display:inline;overflow:visible;visibility:visible;opacity:0.2;fill:#000000;fill-opacity:1;fill-rule:nonzero;stroke:none;stroke-width:1;marker:none;enable-background:accumulate"
     inkscape:connector-curvature="0" />
  <path
     d="m 30.538944,28.348701 c -5.616024,0 -10.312049,3.850799 -11.657485,9.041644 l 2.985048,0 c 1.246327,-3.585154 4.66116,-6.153329 8.672437,-6.153329 2.789795,0 5.291718,1.23959 6.975644,3.202227 l -3.959146,3.955732 9.049502,0 0,-9.041639 -3.04793,3.04527 c -2.203185,-2.490214 -5.428929,-4.049905 -9.01807,-4.049905 z M 18.472952,43.4181 l 0,9.041651 3.550657,-3.547598 c 2.177083,2.189557 5.180808,3.547598 8.515335,3.547598 5.616017,0 10.312024,-3.850802 11.657502,-9.041651 l -2.985068,0 c -1.246329,3.585139 -4.661152,6.153325 -8.672434,6.153325 -2.531538,0 -4.811641,-1.044067 -6.472895,-2.699928 l 3.45638,-3.453397 -9.049477,0 z"
     id="path4285"
     style="color:#000000;display:inline;overflow:visible;visibility:visible;fill:url(#linearGradient3012-1);fill-opacity:1;fill-rule:nonzero;stroke:none;stroke-width:1;marker:none;enable-background:accumulate"
     inkscape:connector-curvature="0" />
</svg>
