<?xml version="1.0" encoding="UTF-8" standalone="no"?>
<svg
   xmlns:dc="http://purl.org/dc/elements/1.1/"
   xmlns:cc="http://creativecommons.org/ns#"
   xmlns:rdf="http://www.w3.org/1999/02/22-rdf-syntax-ns#"
   xmlns:svg="http://www.w3.org/2000/svg"
   xmlns="http://www.w3.org/2000/svg"
   xmlns:xlink="http://www.w3.org/1999/xlink"
   xmlns:sodipodi="http://sodipodi.sourceforge.net/DTD/sodipodi-0.dtd"
   xmlns:inkscape="http://www.inkscape.org/namespaces/inkscape"
   version="1.1"
   width="128"
   height="128"
   id="svg3828"
   inkscape:version="0.91 r13725"
   sodipodi:docname="io.elementary.code.svg">
  <sodipodi:namedview
     pagecolor="#ffffff"
     bordercolor="#666666"
     borderopacity="1"
     objecttolerance="10"
     gridtolerance="10"
     guidetolerance="10"
     inkscape:pageopacity="0"
     inkscape:pageshadow="2"
     inkscape:window-width="1366"
     inkscape:window-height="705"
     id="namedview35"
     showgrid="false"
     inkscape:zoom="3.90625"
     inkscape:cx="64"
     inkscape:cy="64"
     inkscape:window-x="0"
     inkscape:window-y="30"
     inkscape:window-maximized="1"
     inkscape:current-layer="svg3828" />
  <defs
     id="defs3830">
    <linearGradient
       x1="25.728966"
       y1="0.55226636"
       x2="25.728966"
       y2="46.156921"
       id="linearGradient5157"
       xlink:href="#linearGradient3977-7-8"
       gradientUnits="userSpaceOnUse"
       gradientTransform="matrix(2.891892,0,0,2.3243242,7.59461,12.716354)" />
    <linearGradient
       id="linearGradient3977-7-8">
      <stop
         id="stop3979-6-0"
         style="stop-color:#ffffff;stop-opacity:1"
         offset="0" />
      <stop
         id="stop3981-3-70"
         style="stop-color:#ffffff;stop-opacity:0.23529412"
         offset="0" />
      <stop
         id="stop3983-8-2"
         style="stop-color:#ffffff;stop-opacity:0.15686275"
         offset="0.99999994" />
      <stop
         id="stop3985-2-7"
         style="stop-color:#ffffff;stop-opacity:0.39215687"
         offset="1" />
    </linearGradient>
    <linearGradient
       x1="25.132275"
       y1="0.98520643"
       x2="25.284401"
       y2="51.42194"
       id="linearGradient5165"
       xlink:href="#linearGradient4337"
       gradientUnits="userSpaceOnUse"
       gradientTransform="matrix(3.1142792,0,0,1.9120949,-8.742685,19.676374)" />
    <radialGradient
       cx="19.53446"
       cy="40.430397"
       r="23.929714"
       fx="19.53446"
       fy="40.430397"
       id="radialGradient3846"
       xlink:href="#linearGradient5071-7-3-5"
       gradientUnits="userSpaceOnUse"
       gradientTransform="matrix(1.9222962,0,0,0.16715632,26.448985,114.23354)" />
    <linearGradient
       id="linearGradient5071-7-3-5">
      <stop
         id="stop5073-2-9-7"
         style="stop-color:#000000;stop-opacity:1"
         offset="0" />
      <stop
         id="stop5075-2-1-0"
         style="stop-color:#000000;stop-opacity:0"
         offset="1" />
    </linearGradient>
    <linearGradient
       id="linearGradient5736">
      <stop
         offset="0"
         style="stop-color:#586e75;stop-opacity:1"
         id="stop5738" />
      <stop
         offset="1"
         style="stop-color:#073642;stop-opacity:1"
         id="stop5740" />
    </linearGradient>
    <linearGradient
       id="linearGradient4337">
      <stop
         offset="0"
         style="stop-color:#fdf6e3;stop-opacity:1"
         id="stop4339" />
      <stop
         offset="1"
         style="stop-color:#eee8d5;stop-opacity:1"
         id="stop4341" />
    </linearGradient>
    <linearGradient
       xlink:href="#linearGradient5736"
       id="linearGradient5857"
       gradientUnits="userSpaceOnUse"
       gradientTransform="matrix(2.9813606,0.79277801,-0.48877088,1.8105292,4.92847,-4.3609206)"
       x1="17.233864"
       y1="-1.6629155"
       x2="26.343443"
       y2="54.477512" />
    <linearGradient
       y2="51.42194"
       x2="25.284401"
       y1="0.98520643"
       x1="25.132275"
       gradientTransform="matrix(3.1142792,0,0,1.9120949,-8.742685,19.676374)"
       gradientUnits="userSpaceOnUse"
       id="linearGradient4527"
       xlink:href="#linearGradient5736" />
    <linearGradient
       y2="46.156921"
       x2="25.728966"
       y1="0.55226636"
       x1="25.728966"
       gradientTransform="matrix(2.891892,0,0,2.3243242,7.59461,12.716354)"
       gradientUnits="userSpaceOnUse"
       id="linearGradient4529"
       xlink:href="#linearGradient3977-7-8" />
    <radialGradient
       gradientTransform="matrix(0.49776535,0,0,0.1563841,10.288298,91.862125)"
       gradientUnits="userSpaceOnUse"
       xlink:href="#linearGradient3820-7-2-1"
       id="radialGradient3025-3"
       fy="186.17059"
       fx="99.157013"
       r="62.769119"
       cy="186.17059"
       cx="99.157013" />
    <linearGradient
       id="linearGradient3820-7-2-1">
      <stop
         offset="0"
         style="stop-color:#3d3d3d;stop-opacity:1"
         id="stop3822-2-6-3" />
      <stop
         offset="0.5"
         style="stop-color:#686868;stop-opacity:0.49803922"
         id="stop3864-8-7-7" />
      <stop
         offset="1"
         style="stop-color:#686868;stop-opacity:0"
         id="stop3824-1-2-5" />
    </linearGradient>
    <linearGradient
       gradientTransform="matrix(2.1210929,0,0,2.1184452,-91.686014,27.002937)"
       gradientUnits="userSpaceOnUse"
       xlink:href="#linearGradient4011"
       id="linearGradient3019-3"
       y2="44.340794"
       x2="71.204407"
       y1="6.2375584"
       x1="71.204407" />
    <linearGradient
       id="linearGradient4011">
      <stop
         offset="0"
         style="stop-color:#ffffff;stop-opacity:1"
         id="stop4013" />
      <stop
         offset="0.507761"
         style="stop-color:#ffffff;stop-opacity:0.23529412"
         id="stop4015" />
      <stop
         offset="0.83456558"
         style="stop-color:#ffffff;stop-opacity:0.15686275"
         id="stop4017" />
      <stop
         offset="1"
         style="stop-color:#ffffff;stop-opacity:0.39215687"
         id="stop4019" />
    </linearGradient>
    <linearGradient
       x1="167.98311"
       y1="6.8325434"
       x2="167.98311"
       y2="61.692036"
       id="linearGradient3012-1"
       xlink:href="#linearGradient5803-2-1"
       gradientUnits="userSpaceOnUse"
       gradientTransform="matrix(1.4305716,0,0,1.428786,-170.34523,33.27633)" />
    <linearGradient
       id="linearGradient5803-2-1">
      <stop
         id="stop5805-1-6"
         style="stop-color:#fff5ef;stop-opacity:1"
         offset="0" />
      <stop
         id="stop5807-6-6"
         style="stop-color:#fef8dd;stop-opacity:1"
         offset="1" />
    </linearGradient>
  </defs>
  <metadata
     id="metadata3833">
    <rdf:RDF>
      <cc:Work
         rdf:about="">
        <dc:format>image/svg+xml</dc:format>
        <dc:type
           rdf:resource="http://purl.org/dc/dcmitype/StillImage" />
        <dc:title />
      </cc:Work>
    </rdf:RDF>
  </metadata>
  <rect
     transform="matrix(0.99422325,0.1073319,-0.15086293,0.98855469,0,0)"
     ry="3.4799852"
     y="11.754287"
     x="37.417423"
     height="93.507507"
     width="82.422523"
     id="rect3412"
     style="fill:#37c8ab;fill-opacity:1;stroke:#000000;stroke-width:1.07020164;stroke-opacity:0.15686275" />
  <rect
     ry="3.0987134"
     y="2.1321256"
     x="12.950909"
     height="104.44355"
     width="87.010414"
     id="rect3414"
     style="opacity:1;fill:#80e5ff;fill-opacity:1;stroke:#000000;stroke-width:1.01976085;stroke-opacity:0.15686275" />
  <path
     inkscape:connector-curvature="0"
     style="opacity:0.87699998;fill:url(#radialGradient3025-3);fill-opacity:1;stroke:none"
     id="path3818-0-5"
     d="m 90.889478,120.97623 a 31.24431,9.8160925 0 0 1 -62.488575,0 31.24431,9.8160925 0 1 1 62.488575,0 z" />
  <path
     inkscape:connector-curvature="0"
     style="color:#000000;display:inline;overflow:visible;visibility:visible;fill:#37c8ab;fill-opacity:0.73046875;fill-rule:nonzero;stroke:none;stroke-width:1;marker:none;enable-background:accumulate"
     id="path2555-9-6"
     d="m 60.46737,39.005324 c -22.761692,0 -41.252525,18.4677 -41.252525,41.201028 0,22.733268 18.490833,41.201018 41.252525,41.201018 22.761691,0 41.25253,-18.46775 41.25253,-41.201018 0,-22.733328 -18.490839,-41.201028 -41.25253,-41.201028 z" />
  <path
     inkscape:connector-curvature="0"
     style="color:#000000;display:inline;overflow:visible;visibility:visible;opacity:0.5;fill:none;stroke:url(#linearGradient3019-3);stroke-width:2.01106238;stroke-linecap:round;stroke-linejoin:round;stroke-miterlimit:4;stroke-dasharray:none;stroke-dashoffset:0;stroke-opacity:1;marker:none;enable-background:accumulate"
     id="path8655"
     d="m 99.707618,80.719483 c 0,21.645397 -17.569829,39.192607 -39.239684,39.192607 -21.67203,0 -39.240729,-17.54739 -39.240729,-39.192607 0,-21.644433 17.568699,-39.189863 39.240729,-39.189863 21.669855,0 39.239684,17.54543 39.239684,39.189863 l 0,0 z" />
  <path
     inkscape:connector-curvature="0"
     style="color:#000000;clip-rule:nonzero;display:inline;overflow:visible;visibility:visible;opacity:0.5;isolation:auto;mix-blend-mode:normal;color-interpolation:sRGB;color-interpolation-filters:linearRGB;solid-color:#000000;solid-opacity:1;fill:#000000;fill-opacity:0;fill-rule:nonzero;stroke:#00537d;stroke-width:2.01106238;stroke-linecap:round;stroke-linejoin:round;stroke-miterlimit:4;stroke-dasharray:none;stroke-dashoffset:0;stroke-opacity:1;marker:none;color-rendering:auto;image-rendering:auto;shape-rendering:auto;text-rendering:auto;enable-background:accumulate"
     id="path2555-6"
     d="m 60.46737,39.519805 c -22.761692,0 -41.252525,18.467747 -41.252525,41.201043 0,22.733332 18.490833,41.201082 41.252525,41.201082 22.761691,0 41.25253,-18.46775 41.25253,-41.201082 0,-22.733296 -18.490839,-41.201043 -41.25253,-41.201043 z" />
  <path
     d="m 59.952218,55.067465 c -12.156469,0 -22.363568,8.349285 -25.279777,19.595654 a 2.0046483,2.0021462 0 0 0 1.949456,2.512248 l 5.974093,0 a 2.0046483,2.0021462 0 0 0 1.886553,-1.381754 c 2.219274,-6.38153 8.298153,-10.928284 15.469675,-10.928284 4.293653,0 8.026242,1.83578 10.941969,4.522039 l -6.351356,6.343452 a 2.0046483,2.0021462 0 0 0 1.446386,3.454356 l 18.110834,0 a 2.0046483,2.0021462 0 0 0 2.012358,-2.009809 l 0,-18.088247 a 2.0046483,2.0021462 0 0 0 -3.458745,-1.444581 l -4.779243,4.773325 C 73.188527,57.945091 66.929714,55.067465 59.952218,55.067465 Z M 35.615756,85.214597 a 2.0046483,2.0021462 0 0 0 -1.823648,2.009775 l 0,18.088288 a 2.0046483,2.0021462 0 0 0 3.458665,1.44456 l 5.974015,-5.96661 c 4.548005,3.88705 10.273705,6.53184 16.72743,6.53184 12.156553,0 22.36357,-8.349234 25.279779,-19.595571 a 2.0046483,2.0021462 0 0 0 -1.949536,-2.512282 l -5.974014,0 a 2.0046483,2.0021462 0 0 0 -1.886551,1.381723 c -2.219355,6.381545 -8.298154,10.928348 -15.469678,10.928348 -3.764323,0 -7.046439,-1.496962 -9.81002,-3.642767 l 5.219408,-5.21295 a 2.0046483,2.0021462 0 0 0 -1.446385,-3.454354 l -18.110833,0 a 2.0046483,2.0021462 0 0 0 -0.18847,0 z"
     id="path4451"
     style="color:#000000;display:inline;overflow:visible;visibility:visible;opacity:0.06300001;fill:#000000;fill-opacity:1;fill-rule:nonzero;stroke:none;stroke-width:1;marker:none;enable-background:accumulate"
     inkscape:connector-curvature="0" />
  <path
     d="m 60.46737,57.1072 c -11.239414,0 -20.637619,7.703724 -23.330321,18.088274 l 5.974093,0 c 2.494245,-7.172282 9.328376,-12.310048 17.356228,-12.310048 5.583301,0 10.590398,2.479862 13.960467,6.40622 l -7.923469,7.91365 18.110833,0 0,-18.088281 -6.099823,6.092232 C 74.10607,60.227441 67.650329,57.1072 60.46737,57.1072 Z m -24.14783,30.147116 0,18.088294 7.10596,-7.097153 c 4.357037,4.380323 10.368423,7.097153 17.04187,7.097153 11.239414,0 20.637619,-7.70373 23.330322,-18.088294 l -5.974095,0 c -2.494245,7.172257 -9.328374,12.310041 -17.356227,12.310041 -5.066377,0 -9.629605,-2.088703 -12.954326,-5.401338 l 6.917329,-6.908703 -18.110833,0 z"
     id="path4285-6"
     style="color:#000000;display:inline;overflow:visible;visibility:visible;opacity:0.2;fill:#000000;fill-opacity:1;fill-rule:nonzero;stroke:none;stroke-width:1;marker:none;enable-background:accumulate"
     inkscape:connector-curvature="0" />
  <path
     d="m 61.497674,57.1072 c -11.239413,0 -20.637621,7.703724 -23.330244,18.088274 l 5.974015,0 c 2.494245,-7.172282 9.328456,-12.310048 17.356229,-12.310048 5.5833,0 10.590398,2.479862 13.960465,6.40622 l -7.923468,7.91365 18.110832,0 0,-18.088281 -6.099821,6.092232 C 75.136371,60.227441 68.680712,57.1072 61.497674,57.1072 Z m -24.147833,30.147116 0,18.088294 7.106043,-7.097153 c 4.356956,4.380323 10.368341,7.097153 17.04179,7.097153 11.239411,0 20.637616,-7.70373 23.330322,-18.088294 l -5.974015,0 c -2.494326,7.172257 -9.328457,12.310041 -17.356307,12.310041 -5.06638,0 -9.629608,-2.088703 -12.95425,-5.401338 l 6.91725,-6.908703 -18.110833,0 z"
     id="path4285"
     style="color:#000000;display:inline;overflow:visible;visibility:visible;fill:url(#linearGradient3012-1);fill-opacity:1;fill-rule:nonzero;stroke:none;stroke-width:1;marker:none;enable-background:accumulate"
     inkscape:connector-curvature="0" />
</svg>
