<?xml version="1.0" encoding="UTF-8" standalone="no"?>
<svg
   xmlns:dc="http://purl.org/dc/elements/1.1/"
   xmlns:cc="http://creativecommons.org/ns#"
   xmlns:rdf="http://www.w3.org/1999/02/22-rdf-syntax-ns#"
   xmlns:svg="http://www.w3.org/2000/svg"
   xmlns="http://www.w3.org/2000/svg"
   xmlns:xlink="http://www.w3.org/1999/xlink"
   xmlns:sodipodi="http://sodipodi.sourceforge.net/DTD/sodipodi-0.dtd"
   xmlns:inkscape="http://www.inkscape.org/namespaces/inkscape"
   version="1.0"
   width="32"
   height="32"
   id="svg2526"
   inkscape:version="0.91 r13725"
   sodipodi:docname="com.github.robertsanseries.ciano.svg">
  <sodipodi:namedview
     pagecolor="#ffffff"
     bordercolor="#666666"
     borderopacity="1"
     objecttolerance="10"
     gridtolerance="10"
     guidetolerance="10"
     inkscape:pageopacity="0"
     inkscape:pageshadow="2"
     inkscape:window-width="1366"
     inkscape:window-height="705"
     id="namedview44"
     showgrid="false"
     inkscape:zoom="15.625"
     inkscape:cx="16"
     inkscape:cy="16"
     inkscape:window-x="0"
     inkscape:window-y="30"
     inkscape:window-maximized="1"
     inkscape:current-layer="svg2526" />
  <metadata
     id="metadata58">
    <rdf:RDF>
      <cc:Work
         rdf:about="">
        <dc:format>image/svg+xml</dc:format>
        <dc:type
           rdf:resource="http://purl.org/dc/dcmitype/StillImage" />
        <dc:title />
      </cc:Work>
    </rdf:RDF>
  </metadata>
  <defs
     id="defs2528">
    <linearGradient
       id="linearGradient4441">
      <stop
         id="stop4443"
         style="stop-color:#ffffff;stop-opacity:1"
         offset="0" />
      <stop
         id="stop4445"
         style="stop-color:#ffffff;stop-opacity:0.23529412"
         offset="0" />
      <stop
         id="stop4447"
         style="stop-color:#ffffff;stop-opacity:0.15686275"
         offset="1" />
      <stop
         id="stop4449"
         style="stop-color:#ffffff;stop-opacity:0.39215687"
         offset="1" />
    </linearGradient>
    <linearGradient
       id="linearGradient5060">
      <stop
         id="stop5062"
         style="stop-color:#000000;stop-opacity:1"
         offset="0" />
      <stop
         id="stop5064"
         style="stop-color:#000000;stop-opacity:0"
         offset="1" />
    </linearGradient>
    <linearGradient
       id="linearGradient5048">
      <stop
         id="stop5050"
         style="stop-color:#000000;stop-opacity:0"
         offset="0" />
      <stop
         id="stop5056"
         style="stop-color:#000000;stop-opacity:1"
         offset="0.5" />
      <stop
         id="stop5052"
         style="stop-color:#000000;stop-opacity:0"
         offset="1" />
    </linearGradient>
    <linearGradient
       x1="302.85715"
       y1="366.64789"
       x2="302.85715"
       y2="609.50507"
       id="linearGradient3188"
       xlink:href="#linearGradient5048"
       gradientUnits="userSpaceOnUse"
       gradientTransform="matrix(0.06045202,0,0,0.01647059,-0.754243,21.961096)" />
    <radialGradient
       cx="605.71429"
       cy="486.64789"
       r="117.14286"
       fx="605.71429"
       fy="486.64789"
       id="radialGradient3190"
       xlink:href="#linearGradient5060"
       gradientUnits="userSpaceOnUse"
       gradientTransform="matrix(-0.02008098,0,0,0.01647059,18.60219,21.961131)" />
    <radialGradient
       cx="605.71429"
       cy="486.64789"
       r="117.14286"
       fx="605.71429"
       fy="486.64789"
       id="radialGradient3192"
       xlink:href="#linearGradient5060"
       gradientUnits="userSpaceOnUse"
       gradientTransform="matrix(0.02008097,0,0,0.01647059,13.397992,21.961131)" />
    <linearGradient
       xlink:href="#linearGradient4441"
       id="linearGradient3296"
       gradientUnits="userSpaceOnUse"
       gradientTransform="matrix(0.7837838,0,0,0.6216216,2.189191,2.081085)"
       x1="23.999998"
       y1="3.0869503"
       x2="23.99999"
       y2="41.695648" />
    <linearGradient
       xlink:href="#linearGradient4337"
       id="linearGradient3299"
       gradientUnits="userSpaceOnUse"
       gradientTransform="matrix(0.88775301,0,0,0.54518426,-4.27036,3.0337592)"
       x1="25.132275"
       y1="0.98520643"
       x2="25.132275"
       y2="47.013336" />
    <linearGradient
       id="linearGradient5736">
      <stop
         id="stop5738"
         style="stop-color:#586e75;stop-opacity:1"
         offset="0" />
      <stop
         id="stop5740"
         style="stop-color:#073642;stop-opacity:1"
         offset="1" />
    </linearGradient>
    <linearGradient
       id="linearGradient4337">
      <stop
         id="stop4339"
         style="stop-color:#fdf6e3;stop-opacity:1"
         offset="0" />
      <stop
         id="stop4341"
         style="stop-color:#eee8d5;stop-opacity:1"
         offset="1" />
    </linearGradient>
    <linearGradient
       xlink:href="#linearGradient5736"
       id="linearGradient4496"
       gradientUnits="userSpaceOnUse"
       gradientTransform="matrix(0.80384891,0.14170306,-0.08623413,0.48892969,0.012884,-1.6575098)"
       x1="20.384232"
       y1="2.7534974"
       x2="25.581266"
       y2="51.198704" />
    <linearGradient
       y2="47.013336"
       x2="25.132275"
       y1="0.98520643"
       x1="25.132275"
       gradientTransform="matrix(0.88775301,0,0,0.54518426,-4.27036,3.0337592)"
       gradientUnits="userSpaceOnUse"
       id="linearGradient866"
       xlink:href="#linearGradient5736" />
    <linearGradient
       y2="41.695648"
       x2="23.99999"
       y1="3.0869503"
       x1="23.999998"
       gradientTransform="matrix(0.7837838,0,0,0.6216216,2.189191,2.081085)"
       gradientUnits="userSpaceOnUse"
       id="linearGradient868"
       xlink:href="#linearGradient4441" />
    <radialGradient
       gradientTransform="matrix(0.12369973,0,0,0.03927257,2.7399611,22.955427)"
       gradientUnits="userSpaceOnUse"
       xlink:href="#linearGradient3820-7-2-1"
       id="radialGradient3025-3"
       fy="186.17059"
       fx="99.157013"
       r="62.769119"
       cy="186.17059"
       cx="99.157013" />
    <linearGradient
       id="linearGradient3820-7-2-1">
      <stop
         offset="0"
         style="stop-color:#3d3d3d;stop-opacity:1"
         id="stop3822-2-6-3" />
      <stop
         offset="0.5"
         style="stop-color:#686868;stop-opacity:0.49803922"
         id="stop3864-8-7-7" />
      <stop
         offset="1"
         style="stop-color:#686868;stop-opacity:0"
         id="stop3824-1-2-5" />
    </linearGradient>
    <linearGradient
       gradientTransform="matrix(0.5271131,0,0,0.53200272,-22.601688,6.6674109)"
       gradientUnits="userSpaceOnUse"
       xlink:href="#linearGradient4011"
       id="linearGradient3019-3"
       y2="44.340794"
       x2="71.204407"
       y1="6.2375584"
       x1="71.204407" />
    <linearGradient
       id="linearGradient4011">
      <stop
         offset="0"
         style="stop-color:#ffffff;stop-opacity:1"
         id="stop4013" />
      <stop
         offset="0.507761"
         style="stop-color:#ffffff;stop-opacity:0.23529412"
         id="stop4015" />
      <stop
         offset="0.83456558"
         style="stop-color:#ffffff;stop-opacity:0.15686275"
         id="stop4017" />
      <stop
         offset="1"
         style="stop-color:#ffffff;stop-opacity:0.39215687"
         id="stop4019" />
    </linearGradient>
    <linearGradient
       x1="167.98311"
       y1="6.8325434"
       x2="167.98311"
       y2="61.692036"
       id="linearGradient3012-1"
       xlink:href="#linearGradient5803-2-1"
       gradientUnits="userSpaceOnUse"
       gradientTransform="matrix(0.35551156,0,0,0.35880942,-42.149286,8.2428424)" />
    <linearGradient
       id="linearGradient5803-2-1">
      <stop
         id="stop5805-1-6"
         style="stop-color:#fff5ef;stop-opacity:1"
         offset="0" />
      <stop
         id="stop5807-6-6"
         style="stop-color:#fef8dd;stop-opacity:1"
         offset="1" />
    </linearGradient>
  </defs>
  <rect
     transform="matrix(0.99410194,0.1084497,-0.14932502,0.98878817,0,0)"
     ry="0.87371844"
     y="2.8180275"
     x="9.4640636"
     height="23.476889"
     width="20.485332"
     id="rect3412"
     style="fill:#37c8ab;fill-opacity:1;stroke:#000000;stroke-width:0.26733831;stroke-opacity:0.3137255" />
  <rect
     ry="0.77817637"
     y="0.4216336"
     x="3.4016626"
     height="26.228794"
     width="21.622971"
     id="rect3414"
     style="opacity:1;fill:#80e5ff;fill-opacity:1;stroke:#000000;stroke-width:0.25475261;stroke-opacity:0.3137255" />
  <path
     inkscape:connector-curvature="0"
     style="opacity:0.87699998;fill:url(#radialGradient3025-3);fill-opacity:1;stroke:none"
     id="path3818-0-5"
     d="m 22.770183,30.266819 a 7.7645277,2.4651042 0 0 1 -15.5290501,0 7.7645277,2.4651042 0 1 1 15.5290501,0 z" />
  <path
     inkscape:connector-curvature="0"
     style="color:#000000;display:inline;overflow:visible;visibility:visible;fill:#37c8ab;fill-opacity:0.73046875;fill-rule:nonzero;stroke:none;stroke-width:1;marker:none;enable-background:accumulate"
     id="path2555-9-6"
     d="m 15.20998,9.6815587 c -5.6565178,0 -10.2516751,4.6377723 -10.2516751,10.3467683 0,5.708979 4.5951573,10.346767 10.2516751,10.346767 5.656508,0 10.251673,-4.637788 10.251667,-10.346767 0,-5.708996 -4.595159,-10.3467683 -10.251667,-10.3467683 z" />
  <path
     inkscape:connector-curvature="0"
     style="color:#000000;display:inline;overflow:visible;visibility:visible;opacity:0.5;fill:none;stroke:url(#linearGradient3019-3);stroke-width:0.50239569;stroke-linecap:round;stroke-linejoin:round;stroke-miterlimit:4;stroke-dasharray:none;stroke-dashoffset:0;stroke-opacity:1;marker:none;enable-background:accumulate"
     id="path8655"
     d="m 24.961568,20.15719 c 0,5.435783 -4.36626,9.842391 -9.751458,9.842391 -5.3857135,0 -9.7517156,-4.406653 -9.7517156,-9.842391 0,-5.435544 4.3660021,-9.841706 9.7517156,-9.841706 5.385198,0 9.751458,4.406162 9.751458,9.841706 l 0,0 z" />
  <path
     inkscape:connector-curvature="0"
     style="color:#000000;clip-rule:nonzero;display:inline;overflow:visible;visibility:visible;opacity:0.5;isolation:auto;mix-blend-mode:normal;color-interpolation:sRGB;color-interpolation-filters:linearRGB;solid-color:#000000;solid-opacity:1;fill:#000000;fill-opacity:0;fill-rule:nonzero;stroke:#00537d;stroke-width:0.50239569;stroke-linecap:round;stroke-linejoin:round;stroke-miterlimit:4;stroke-dasharray:none;stroke-dashoffset:0;stroke-opacity:1;marker:none;color-rendering:auto;image-rendering:auto;shape-rendering:auto;text-rendering:auto;enable-background:accumulate"
     id="path2555-6"
     d="m 15.20998,9.8107588 c -5.6565178,0 -10.2516751,4.6377832 -10.2516751,10.3467732 0,5.708992 4.5951573,10.346775 10.2516751,10.346775 5.656508,0 10.251673,-4.637783 10.251667,-10.346775 0,-5.70899 -4.595159,-10.3467732 -10.251667,-10.3467732 z" />
  <path
     d="m 15.081957,13.715226 c -3.021003,0 -5.5575796,2.096747 -6.2822732,4.921034 a 0.49817541,0.50279671 0 0 0 0.4844515,0.630897 l 1.4846157,0 a 0.49817541,0.50279671 0 0 0 0.468832,-0.346997 c 0.551512,-1.602585 2.062182,-2.744409 3.844374,-2.744409 1.067022,0 1.994608,0.46102 2.719197,1.135617 l -1.578379,1.593022 a 0.49817541,0.50279671 0 0 0 0.359438,0.867489 l 4.500731,0 a 0.49817541,0.50279671 0 0 0 0.500081,-0.504722 l 0,-4.54248 a 0.49817541,0.50279671 0 0 0 -0.859523,-0.362775 l -1.187694,1.198719 c -1.164487,-1.122739 -2.719874,-1.845395 -4.453851,-1.845395 z m -6.0478575,7.570816 a 0.49817541,0.50279671 0 0 0 -0.4531951,0.504711 l 0,4.542489 a 0.49817541,0.50279671 0 0 0 0.8595093,0.362773 l 1.4846163,-1.49839 c 1.130225,0.976151 2.553109,1.640336 4.156927,1.640336 3.021019,0 5.557576,-2.096734 6.282274,-4.921014 a 0.49817541,0.50279671 0 0 0 -0.484465,-0.630905 l -1.484604,0 a 0.49817541,0.50279671 0 0 0 -0.468824,0.346989 c -0.551532,1.602591 -2.06219,2.744424 -3.844381,2.744424 -0.935473,0 -1.7511,-0.37593 -2.43789,-0.914805 l 1.297083,-1.30912 a 0.49817541,0.50279671 0 0 0 -0.359441,-0.867488 l -4.5007228,0 a 0.49817541,0.50279671 0 0 0 -0.046897,0 z"
     id="path4451"
     style="color:#000000;display:inline;overflow:visible;visibility:visible;opacity:0.06300001;fill:#000000;fill-opacity:1;fill-rule:nonzero;stroke:none;stroke-width:1;marker:none;enable-background:accumulate"
     inkscape:connector-curvature="0" />
  <path
     d="m 15.20998,14.227463 c -2.793109,0 -5.128661,1.934625 -5.7978204,4.542488 l 1.4846184,0 c 0.619852,-1.801169 2.318199,-3.091412 4.313202,-3.091412 1.387507,0 2.631822,0.622766 3.469315,1.608788 l -1.969068,1.987348 4.500742,0 0,-4.542489 -1.515887,1.529934 c -1.09574,-1.251076 -2.700055,-2.034657 -4.485102,-2.034657 z m -6.0009716,7.570811 0,4.542492 1.7659046,-1.782299 c 1.082757,1.100024 2.576654,1.782299 4.235067,1.782299 2.793112,0 5.12866,-1.93463 5.797821,-4.542492 l -1.484622,0 c -0.619851,1.801161 -2.318202,3.091408 -4.313199,3.091408 -1.259051,0 -2.393065,-0.524537 -3.219279,-1.356434 l 1.719025,-1.734974 -4.5007176,0 z"
     id="path4285-6"
     style="color:#000000;display:inline;overflow:visible;visibility:visible;opacity:0.2;fill:#000000;fill-opacity:1;fill-rule:nonzero;stroke:none;stroke-width:1;marker:none;enable-background:accumulate"
     inkscape:connector-curvature="0" />
  <path
     d="m 15.466024,14.227463 c -2.793111,0 -5.128662,1.934625 -5.7978098,4.542488 l 1.4846018,0 c 0.619859,-1.801169 2.318213,-3.091412 4.313208,-3.091412 1.387495,0 2.631818,0.622766 3.46931,1.608788 l -1.969065,1.987348 4.500737,0 0,-4.542489 -1.515877,1.529934 C 18.855383,15.011044 17.25107,14.227463 15.466024,14.227463 Z m -6.000979,7.570811 0,4.542492 1.765907,-1.782299 c 1.082764,1.100024 2.576657,1.782299 4.235072,1.782299 2.793105,0 5.128648,-1.93463 5.797818,-4.542492 l -1.484614,0 c -0.619857,1.801161 -2.318208,3.091408 -4.313204,3.091408 -1.259052,0 -2.393053,-0.524537 -3.219272,-1.356434 l 1.719018,-1.734974 -4.500725,0 z"
     id="path4285"
     style="color:#000000;display:inline;overflow:visible;visibility:visible;fill:url(#linearGradient3012-1);fill-opacity:1;fill-rule:nonzero;stroke:none;stroke-width:1;marker:none;enable-background:accumulate"
     inkscape:connector-curvature="0" />
</svg>
