<?xml version="1.0" encoding="UTF-8" standalone="no"?>
<svg
   xmlns:dc="http://purl.org/dc/elements/1.1/"
   xmlns:cc="http://creativecommons.org/ns#"
   xmlns:rdf="http://www.w3.org/1999/02/22-rdf-syntax-ns#"
   xmlns:svg="http://www.w3.org/2000/svg"
   xmlns="http://www.w3.org/2000/svg"
   xmlns:xlink="http://www.w3.org/1999/xlink"
   xmlns:sodipodi="http://sodipodi.sourceforge.net/DTD/sodipodi-0.dtd"
   xmlns:inkscape="http://www.inkscape.org/namespaces/inkscape"
   version="1.1"
   width="16"
   height="16"
   id="svg3508"
   inkscape:version="0.91 r13725"
   sodipodi:docname="com.github.robertsanseries.ciano.svg">
  <sodipodi:namedview
     pagecolor="#ffffff"
     bordercolor="#666666"
     borderopacity="1"
     objecttolerance="10"
     gridtolerance="10"
     guidetolerance="10"
     inkscape:pageopacity="0"
     inkscape:pageshadow="2"
     inkscape:window-width="1366"
     inkscape:window-height="705"
     id="namedview53"
     showgrid="false"
     inkscape:zoom="31.25"
     inkscape:cx="8"
     inkscape:cy="8"
     inkscape:window-x="0"
     inkscape:window-y="30"
     inkscape:window-maximized="1"
     inkscape:current-layer="svg3508" />
  <defs
     id="defs3510">
    <linearGradient
       x1="23.995657"
       y1="-0.66665286"
       x2="23.99999"
       y2="40.444462"
       id="linearGradient3174-3"
       xlink:href="#linearGradient3977-7-7"
       gradientUnits="userSpaceOnUse"
       gradientTransform="matrix(0.29729729,0,0,0.24324323,1.8661564,3.1621588)" />
    <linearGradient
       id="linearGradient3977-7-7">
      <stop
         id="stop3979-6-6"
         style="stop-color:#ffffff;stop-opacity:1"
         offset="0" />
      <stop
         id="stop3981-3-44"
         style="stop-color:#ffffff;stop-opacity:0.23529412"
         offset="0" />
      <stop
         id="stop3983-8-5"
         style="stop-color:#ffffff;stop-opacity:0.15686275"
         offset="0.99999994" />
      <stop
         id="stop3985-2-08"
         style="stop-color:#ffffff;stop-opacity:0.39215687"
         offset="1" />
    </linearGradient>
    <linearGradient
       x1="25.132275"
       y1="0.98520643"
       x2="25.132275"
       y2="47.013336"
       id="linearGradient3182-5"
       xlink:href="#linearGradient4337"
       gradientUnits="userSpaceOnUse"
       gradientTransform="matrix(0.37142773,0,0,0.23901171,-1.9142624,2.8970461)" />
    <linearGradient
       id="linearGradient5736">
      <stop
         id="stop5738"
         style="stop-color:#586e75;stop-opacity:1"
         offset="0" />
      <stop
         id="stop5740"
         style="stop-color:#073642;stop-opacity:1"
         offset="1" />
    </linearGradient>
    <linearGradient
       id="linearGradient4337">
      <stop
         id="stop4339"
         style="stop-color:#fdf6e3;stop-opacity:1"
         offset="0" />
      <stop
         id="stop4341"
         style="stop-color:#eee8d5;stop-opacity:1"
         offset="1" />
    </linearGradient>
    <linearGradient
       gradientTransform="matrix(0.34025771,0.09076733,-0.05512078,0.20481361,1.2325009,-0.0196911)"
       gradientUnits="userSpaceOnUse"
       xlink:href="#linearGradient5736"
       id="linearGradient3192-0-3"
       y2="55.173134"
       x2="26.444973"
       y1="-2.1010971"
       x1="17.231043" />
    <linearGradient
       y2="47.013336"
       x2="25.132275"
       y1="0.98520643"
       x1="25.132275"
       gradientTransform="matrix(0.37142773,0,0,0.23901171,-1.9142624,2.8970461)"
       gradientUnits="userSpaceOnUse"
       id="linearGradient4526"
       xlink:href="#linearGradient5736" />
    <linearGradient
       y2="40.444462"
       x2="23.99999"
       y1="-0.66665286"
       x1="23.995657"
       gradientTransform="matrix(0.29729729,0,0,0.24324323,1.8661564,3.1621588)"
       gradientUnits="userSpaceOnUse"
       id="linearGradient4528"
       xlink:href="#linearGradient3977-7-7" />
    <radialGradient
       gradientTransform="matrix(0.06180142,0,0,0.01958996,1.3417018,11.475634)"
       gradientUnits="userSpaceOnUse"
       xlink:href="#linearGradient3820-7-2-1"
       id="radialGradient3025-3"
       fy="186.17059"
       fx="99.157013"
       r="62.769119"
       cy="186.17059"
       cx="99.157013" />
    <linearGradient
       id="linearGradient3820-7-2-1">
      <stop
         offset="0"
         style="stop-color:#3d3d3d;stop-opacity:1"
         id="stop3822-2-6-3" />
      <stop
         offset="0.5"
         style="stop-color:#686868;stop-opacity:0.49803922"
         id="stop3864-8-7-7" />
      <stop
         offset="1"
         style="stop-color:#686868;stop-opacity:0"
         id="stop3824-1-2-5" />
    </linearGradient>
    <linearGradient
       gradientTransform="matrix(0.26335009,0,0,0.2653739,-11.319197,3.3508371)"
       gradientUnits="userSpaceOnUse"
       xlink:href="#linearGradient4011"
       id="linearGradient3019-3"
       y2="44.340794"
       x2="71.204407"
       y1="6.2375584"
       x1="71.204407" />
    <linearGradient
       id="linearGradient4011">
      <stop
         offset="0"
         style="stop-color:#ffffff;stop-opacity:1"
         id="stop4013" />
      <stop
         offset="0.507761"
         style="stop-color:#ffffff;stop-opacity:0.23529412"
         id="stop4015" />
      <stop
         offset="0.83456558"
         style="stop-color:#ffffff;stop-opacity:0.15686275"
         id="stop4017" />
      <stop
         offset="1"
         style="stop-color:#ffffff;stop-opacity:0.39215687"
         id="stop4019" />
    </linearGradient>
    <linearGradient
       x1="167.98311"
       y1="6.8325434"
       x2="167.98311"
       y2="61.692036"
       id="linearGradient3012-1"
       xlink:href="#linearGradient5803-2-1"
       gradientUnits="userSpaceOnUse"
       gradientTransform="matrix(0.17761654,0,0,0.1789815,-21.08534,4.1366944)" />
    <linearGradient
       id="linearGradient5803-2-1">
      <stop
         id="stop5805-1-6"
         style="stop-color:#fff5ef;stop-opacity:1"
         offset="0" />
      <stop
         id="stop5807-6-6"
         style="stop-color:#fef8dd;stop-opacity:1"
         offset="1" />
    </linearGradient>
  </defs>
  <metadata
     id="metadata3513">
    <rdf:RDF>
      <cc:Work
         rdf:about="">
        <dc:format>image/svg+xml</dc:format>
        <dc:type
           rdf:resource="http://purl.org/dc/dcmitype/StillImage" />
        <dc:title />
      </cc:Work>
    </rdf:RDF>
  </metadata>
  <rect
     transform="matrix(0.99412036,0.1082807,-0.14955558,0.98875332,0,0)"
     ry="0.43584403"
     y="1.4335579"
     x="4.7050562"
     height="11.711167"
     width="10.234453"
     id="rect3412"
     style="fill:#37c8ab;fill-opacity:1;stroke:#000000;stroke-width:0.13346021;stroke-opacity:0.3137255" />
  <rect
     ry="0.38817036"
     y="0.23531491"
     x="1.6722937"
     height="13.083461"
     width="10.803016"
     id="rect3414"
     style="opacity:1;fill:#80e5ff;fill-opacity:1;stroke:#000000;stroke-width:0.12717615;stroke-opacity:0.3137255" />
  <path
     inkscape:connector-curvature="0"
     style="opacity:0.87699998;fill:url(#radialGradient3025-3);fill-opacity:1;stroke:none"
     id="path3818-0-5"
     d="m 11.348967,15.122707 a 3.8792228,1.2296446 0 0 1 -7.7584425,0 3.8792228,1.2296446 0 1 1 7.7584425,0 z" />
  <path
     inkscape:connector-curvature="0"
     style="color:#000000;display:inline;overflow:visible;visibility:visible;fill:#37c8ab;fill-opacity:0.73046875;fill-rule:nonzero;stroke:none;stroke-width:1;marker:none;enable-background:accumulate"
     id="path2555-9-6"
     d="m 7.5718263,4.8543556 c -2.8260434,0 -5.1218218,2.3134162 -5.1218218,5.1611804 0,2.847757 2.2957784,5.16118 5.1218218,5.16118 2.8260387,0 5.1218227,-2.313423 5.1218197,-5.16118 0,-2.8477642 -2.295781,-5.1611804 -5.1218197,-5.1611804 z" />
  <path
     inkscape:connector-curvature="0"
     style="color:#000000;display:inline;overflow:visible;visibility:visible;opacity:0.5;fill:none;stroke:url(#linearGradient3019-3);stroke-width:0.25080311;stroke-linecap:round;stroke-linejoin:round;stroke-miterlimit:4;stroke-dasharray:none;stroke-dashoffset:0;stroke-opacity:1;marker:none;enable-background:accumulate"
     id="path8655"
     d="m 12.443802,10.079815 c 0,2.711481 -2.181421,4.909588 -4.8719102,4.909588 -2.6907477,0 -4.8720384,-2.198129 -4.8720384,-4.909588 0,-2.7113604 2.1812907,-4.909245 4.8720384,-4.909245 2.6904892,0 4.8719102,2.1978846 4.8719102,4.909245 l 0,0 z" />
  <path
     inkscape:connector-curvature="0"
     style="color:#000000;clip-rule:nonzero;display:inline;overflow:visible;visibility:visible;opacity:0.5;isolation:auto;mix-blend-mode:normal;color-interpolation:sRGB;color-interpolation-filters:linearRGB;solid-color:#000000;solid-opacity:1;fill:#000000;fill-opacity:0;fill-rule:nonzero;stroke:#00537d;stroke-width:0.25080311;stroke-linecap:round;stroke-linejoin:round;stroke-miterlimit:4;stroke-dasharray:none;stroke-dashoffset:0;stroke-opacity:1;marker:none;color-rendering:auto;image-rendering:auto;shape-rendering:auto;text-rendering:auto;enable-background:accumulate"
     id="path2555-6"
     d="m 7.5718263,4.9188033 c -2.8260434,0 -5.1218218,2.3134222 -5.1218218,5.1611827 0,2.847763 2.2957784,5.161185 5.1218218,5.161185 2.8260387,0 5.1218227,-2.313422 5.1218197,-5.161185 0,-2.8477605 -2.295781,-5.1611827 -5.1218197,-5.1611827 z" />
  <path
     d="m 7.5078656,6.8664316 c -1.5093187,0 -2.7766131,1.0459001 -3.1386764,2.4547133 a 0.24889259,0.25080532 0 0 0 0.2420361,0.3147043 l 0.7417274,0 A 0.24889259,0.25080532 0 0 0 5.5871841,9.4627596 C 5.8627246,8.6633569 6.6174675,8.0937925 7.5078656,8.0937925 c 0.5330928,0 0.9965229,0.2299654 1.3585338,0.5664684 L 8.0778271,9.4548934 A 0.24889259,0.25080532 0 0 0 8.257406,9.8876146 l 2.248602,0 a 0.24889259,0.25080532 0 0 0 0.249845,-0.2517654 l 0,-2.2658831 A 0.24889259,0.25080532 0 0 0 10.326428,7.189007 L 9.7330475,7.7869524 C 9.1512595,7.226907 8.3741742,6.8664316 7.5078656,6.8664316 Z M 4.4863057,10.64291 a 0.24889259,0.25080532 0 0 0 -0.2264204,0.251761 l 0,2.265887 a 0.24889259,0.25080532 0 0 0 0.4294184,0.180958 l 0.7417266,-0.747428 c 0.5646699,0.486925 1.2755545,0.818234 2.0768353,0.818234 1.5093256,0 2.7766104,-1.045894 3.1386764,-2.454703 A 0.24889259,0.25080532 0 0 0 10.404499,10.64291 l -0.7417207,0 a 0.24889259,0.25080532 0 0 0 -0.234228,0.173086 c -0.2755501,0.799405 -1.0302873,1.368975 -1.9206847,1.368975 -0.46737,0 -0.8748647,-0.187522 -1.2179899,-0.456323 l 0.6480332,-0.653017 a 0.24889259,0.25080532 0 0 0 -0.17958,-0.432721 l -2.2485982,0 a 0.24889259,0.25080532 0 0 0 -0.023432,0 z"
     id="path4451"
     style="color:#000000;display:inline;overflow:visible;visibility:visible;opacity:0.06300001;fill:#000000;fill-opacity:1;fill-rule:nonzero;stroke:none;stroke-width:1;marker:none;enable-background:accumulate"
     inkscape:connector-curvature="0" />
  <path
     d="m 7.5718263,7.1219454 c -1.3954601,0 -2.5623207,0.965032 -2.8966388,2.2658866 l 0.7417276,0 C 5.7265988,8.4893727 6.5751074,7.8457731 7.5718263,7.8457731 c 0.6932098,0 1.3148814,0.3106484 1.7332989,0.8024963 l -0.9837631,0.9913292 2.2486089,0 0,-2.2658866 -0.7573492,0.7631628 C 9.2651799,7.5128123 8.463651,7.1219454 7.5718263,7.1219454 Z m -2.9981353,3.7764766 0,2.265889 0.88226,-0.889048 c 0.5409556,0.548715 1.2873183,0.889048 2.1158753,0.889048 1.3954628,0 2.5623217,-0.965033 2.8966397,-2.265889 l -0.7417283,0 c -0.3096833,0.898456 -1.1581941,1.542058 -2.1549114,1.542058 -0.6290323,0 -1.1955949,-0.261649 -1.6083777,-0.676617 l 0.8588391,-0.865441 -2.2485967,0 z"
     id="path4285-6"
     style="color:#000000;display:inline;overflow:visible;visibility:visible;opacity:0.2;fill:#000000;fill-opacity:1;fill-rule:nonzero;stroke:none;stroke-width:1;marker:none;enable-background:accumulate"
     inkscape:connector-curvature="0" />
  <path
     d="m 7.6997485,7.1219454 c -1.3954614,0 -2.5623221,0.965032 -2.8966345,2.2658866 l 0.7417199,0 C 5.8545202,8.4893727 6.7030324,7.8457731 7.6997485,7.8457731 c 0.6932043,0 1.314878,0.3106484 1.7332965,0.8024963 l -0.9837616,0.9913292 2.2486056,0 0,-2.2658866 -0.7573445,0.7631628 C 9.3931002,7.5128123 8.5915722,7.1219454 7.6997485,7.1219454 Z m -2.9981389,3.7764766 0,2.265889 0.882262,-0.889048 c 0.5409575,0.548715 1.2873187,0.889048 2.1158769,0.889048 1.3954584,0 2.5623155,-0.965033 2.8966375,-2.265889 l -0.7417247,0 c -0.3096857,0.898456 -1.1581956,1.542058 -2.1549128,1.542058 -0.6290327,0 -1.1955895,-0.261649 -1.6083752,-0.676617 l 0.8588362,-0.865441 -2.2485999,0 z"
     id="path4285"
     style="color:#000000;display:inline;overflow:visible;visibility:visible;fill:url(#linearGradient3012-1);fill-opacity:1;fill-rule:nonzero;stroke:none;stroke-width:1;marker:none;enable-background:accumulate"
     inkscape:connector-curvature="0" />
</svg>
