<?xml version="1.0" encoding="UTF-8" standalone="no"?>
<svg
   xmlns:dc="http://purl.org/dc/elements/1.1/"
   xmlns:cc="http://creativecommons.org/ns#"
   xmlns:rdf="http://www.w3.org/1999/02/22-rdf-syntax-ns#"
   xmlns:svg="http://www.w3.org/2000/svg"
   xmlns="http://www.w3.org/2000/svg"
   xmlns:xlink="http://www.w3.org/1999/xlink"
   xmlns:sodipodi="http://sodipodi.sourceforge.net/DTD/sodipodi-0.dtd"
   xmlns:inkscape="http://www.inkscape.org/namespaces/inkscape"
   viewBox="0 0 48 48"
   id="svg3816"
   height="48"
   width="48"
   version="1.1"
   inkscape:version="0.91 r13725"
   sodipodi:docname="com.github.robertsanseries.ciano.svg">
  <sodipodi:namedview
     pagecolor="#ffffff"
     bordercolor="#666666"
     borderopacity="1"
     objecttolerance="10"
     gridtolerance="10"
     guidetolerance="10"
     inkscape:pageopacity="0"
     inkscape:pageshadow="2"
     inkscape:window-width="1920"
     inkscape:window-height="962"
     id="namedview33"
     showgrid="false"
     inkscape:zoom="20.833334"
     inkscape:cx="16.895352"
     inkscape:cy="21.33842"
     inkscape:window-x="0"
     inkscape:window-y="30"
     inkscape:window-maximized="1"
     inkscape:current-layer="svg3816" />
  <defs
     id="defs3818">
    <linearGradient
       gradientTransform="matrix(1.0540541,0,0,0.83783781,3.702711,7.8915317)"
       gradientUnits="userSpaceOnUse"
       xlink:href="#linearGradient3977-7-61"
       id="linearGradient3174-3"
       y2="41.903656"
       x2="23.99999"
       y1="-3.4511831"
       x1="23.99999" />
    <linearGradient
       id="linearGradient3977-7-61">
      <stop
         offset="0"
         style="stop-color:#ffffff;stop-opacity:1"
         id="stop3979-6-49" />
      <stop
         offset="0"
         style="stop-color:#ffffff;stop-opacity:0.23529412"
         id="stop3981-3-78" />
      <stop
         offset="1"
         style="stop-color:#ffffff;stop-opacity:0.15686275"
         id="stop3983-8-86" />
      <stop
         offset="1"
         style="stop-color:#ffffff;stop-opacity:0.39215687"
         id="stop3985-2-07" />
    </linearGradient>
    <linearGradient
       gradientTransform="matrix(0.94285499,0,0,0.89086188,2.371479,1.2526241)"
       gradientUnits="userSpaceOnUse"
       xlink:href="#linearGradient4337"
       id="linearGradient3182-6"
       y2="47.013336"
       x2="25.132275"
       y1="0.98520643"
       x1="25.132275" />
    <linearGradient
       id="linearGradient5071-7-3-2">
      <stop
         offset="0"
         style="stop-color:#000000;stop-opacity:1"
         id="stop5073-2-9-5" />
      <stop
         offset="1"
         style="stop-color:#000000;stop-opacity:0"
         id="stop5075-2-1-5" />
    </linearGradient>
    <radialGradient
       gradientTransform="matrix(0.75220279,0,0,0.06268357,10.306121,42.465311)"
       gradientUnits="userSpaceOnUse"
       xlink:href="#linearGradient5071-7-3-2"
       id="radialGradient3814"
       fy="40.430397"
       fx="19.53446"
       r="23.929714"
       cy="40.430397"
       cx="19.53446" />
    <linearGradient
       id="linearGradient5736">
      <stop
         offset="0"
         style="stop-color:#586e75;stop-opacity:1"
         id="stop5738" />
      <stop
         offset="1"
         style="stop-color:#073642;stop-opacity:1"
         id="stop5740" />
    </linearGradient>
    <linearGradient
       id="linearGradient4337">
      <stop
         offset="0"
         style="stop-color:#fdf6e3;stop-opacity:1"
         id="stop4339" />
      <stop
         offset="1"
         style="stop-color:#eee8d5;stop-opacity:1"
         id="stop4341" />
    </linearGradient>
    <linearGradient
       y2="55.173134"
       x2="26.444973"
       y1="-2.1010971"
       x1="17.231043"
       gradientTransform="matrix(1.1062984,0.29511675,-0.17921718,0.66592164,3.025427,-3.0802734)"
       gradientUnits="userSpaceOnUse"
       id="linearGradient4514"
       xlink:href="#linearGradient5736" />
    <linearGradient
       y2="47.013336"
       x2="25.132275"
       y1="0.98520643"
       x1="25.132275"
       gradientTransform="matrix(0.93926714,-0.08217523,0.07764373,0.88747188,-0.3744572,2.9513293)"
       gradientUnits="userSpaceOnUse"
       id="linearGradient4522"
       xlink:href="#linearGradient5736" />
    <linearGradient
       y2="41.903656"
       x2="23.99999"
       y1="-3.4511831"
       x1="23.99999"
       gradientTransform="matrix(1.0500431,-0.09186687,0.07302238,0.83464958,1.5673403,9.465259)"
       gradientUnits="userSpaceOnUse"
       id="linearGradient4528"
       xlink:href="#linearGradient3977-7-61" />
    <radialGradient
       gradientTransform="matrix(0.18422591,0,0,0.05911183,4.3992714,34.658414)"
       gradientUnits="userSpaceOnUse"
       xlink:href="#linearGradient3820-7-2-1"
       id="radialGradient3025-3"
       fy="186.17059"
       fx="99.157013"
       r="62.769119"
       cy="186.17059"
       cx="99.157013" />
    <linearGradient
       id="linearGradient3820-7-2-1">
      <stop
         offset="0"
         style="stop-color:#3d3d3d;stop-opacity:1"
         id="stop3822-2-6-3" />
      <stop
         offset="0.5"
         style="stop-color:#686868;stop-opacity:0.49803922"
         id="stop3864-8-7-7" />
      <stop
         offset="1"
         style="stop-color:#686868;stop-opacity:0"
         id="stop3824-1-2-5" />
    </linearGradient>
    <linearGradient
       gradientTransform="matrix(0.78502905,0,0,0.80075374,-33.342024,10.142208)"
       gradientUnits="userSpaceOnUse"
       xlink:href="#linearGradient4011"
       id="linearGradient3019-3"
       y2="44.340794"
       x2="71.204407"
       y1="6.2375584"
       x1="71.204407" />
    <linearGradient
       id="linearGradient4011">
      <stop
         offset="0"
         style="stop-color:#ffffff;stop-opacity:1"
         id="stop4013" />
      <stop
         offset="0.507761"
         style="stop-color:#ffffff;stop-opacity:0.23529412"
         id="stop4015" />
      <stop
         offset="0.83456558"
         style="stop-color:#ffffff;stop-opacity:0.15686275"
         id="stop4017" />
      <stop
         offset="1"
         style="stop-color:#ffffff;stop-opacity:0.39215687"
         id="stop4019" />
    </linearGradient>
    <linearGradient
       x1="167.98311"
       y1="6.8325434"
       x2="167.98311"
       y2="61.692036"
       id="linearGradient3012-1"
       xlink:href="#linearGradient5803-2-1"
       gradientUnits="userSpaceOnUse"
       gradientTransform="matrix(0,-0.52946303,0.5400686,0,5.228046,116.44407)" />
    <linearGradient
       id="linearGradient5803-2-1">
      <stop
         id="stop5805-1-6"
         style="stop-color:#fff5ef;stop-opacity:1"
         offset="0" />
      <stop
         id="stop5807-6-6"
         style="stop-color:#fef8dd;stop-opacity:1"
         offset="1" />
    </linearGradient>
  </defs>
  <metadata
     id="metadata3821">
    <rdf:RDF>
      <cc:Work
         rdf:about="">
        <dc:format>image/svg+xml</dc:format>
        <dc:type
           rdf:resource="http://purl.org/dc/dcmitype/StillImage" />
        <dc:title />
      </cc:Work>
    </rdf:RDF>
  </metadata>
  <rect
     transform="matrix(0.99391007,0.11019422,-0.14698474,0.98913876,0,0)"
     ry="1.314616"
     y="3.8356545"
     x="14.165569"
     height="35.323845"
     width="30.345472"
     id="rect3412"
     style="fill:#37c8ab;fill-opacity:1;stroke:#268975;stroke-width:1.00034428;stroke-miterlimit:4;stroke-dasharray:none;stroke-opacity:0.53333309" />
  <rect
     ry="1.1570826"
     y="1.5"
     x="5.5"
     height="39"
     width="32"
     id="rect3414"
     style="opacity:1;fill:#8cd5ff;fill-opacity:1;stroke:#002e99;stroke-width:1;stroke-miterlimit:4;stroke-dasharray:none;stroke-opacity:0.31372549" />
  <path
     inkscape:connector-curvature="0"
     style="opacity:0.87699998;fill:url(#radialGradient3025-3);fill-opacity:1;stroke:none"
     id="path3818-0-5"
     d="m 34.230262,45.663292 a 11.563704,3.7103971 0 0 1 -23.127399,0 11.563704,3.7103971 0 1 1 23.127399,0 z" />
  <path
     inkscape:connector-curvature="0"
     style="color:#000000;display:inline;overflow:visible;visibility:visible;fill:#37c8ab;fill-opacity:1;fill-rule:nonzero;stroke:#2ea68e;stroke-width:1;marker:none;enable-background:accumulate;stroke-opacity:0.53333336"
     id="path2555-9-6"
     d="m 22.970858,14.679006 c -8.424246,0 -15.2678094,6.980628 -15.2678094,15.573631 0,8.592975 6.8435634,15.573624 15.2678094,15.573624 8.424232,0 15.267809,-6.980649 15.2678,-15.573624 0,-8.593003 -6.843568,-15.573631 -15.2678,-15.573631 z" />
  <path
     inkscape:connector-curvature="0"
     style="color:#000000;display:inline;overflow:visible;visibility:visible;opacity:0.5;fill:none;stroke:url(#linearGradient3019-3);stroke-width:1;stroke-linecap:round;stroke-linejoin:round;stroke-miterlimit:4;stroke-dasharray:none;stroke-dashoffset:0;stroke-opacity:1;marker:none;enable-background:accumulate"
     id="path8655"
     d="m 37.49389,30.446596 c 0,8.181768 -6.502668,14.814458 -14.522838,14.814458 -8.020939,0 -14.5232203,-6.632756 -14.5232203,-14.814458 0,-8.181409 6.5022813,-14.813426 14.5232203,-14.813426 8.02017,0 14.522838,6.632017 14.522838,14.813426 l 0,0 z" />
  <path
     d="m 12.892941,30.637631 c 0,4.499176 3.155956,8.276898 7.406987,9.356183 a 0.75679374,0.74193219 0 0 0 0.949607,-0.721492 l 0,-2.211039 a 0.75679374,0.74193219 0 0 0 -0.52229,-0.698229 c -2.412163,-0.821366 -4.130796,-3.071206 -4.130796,-5.725423 0,-1.589114 0.693908,-2.970568 1.709291,-4.049698 l 2.397769,2.350679 a 0.75679374,0.74193219 0 0 0 1.305717,-0.535313 l 0,-6.702931 a 0.75679374,0.74193219 0 0 0 -0.759691,-0.744771 l -6.837199,0 a 0.75679374,0.74193219 0 0 0 -0.546035,1.280086 l 1.804271,1.76883 c -1.689911,1.734271 -2.777631,4.050708 -2.777631,6.633118 z m 11.395352,9.00707 a 0.75679374,0.74193219 0 0 0 0.759677,0.674942 l 6.837213,0 a 0.75679374,0.74193219 0 0 0 0.546032,-1.280067 l -2.255331,-2.211038 c 1.469275,-1.683243 2.468985,-3.802341 2.468985,-6.190907 0,-4.499198 -3.155938,-8.276892 -7.406955,-9.356185 a 0.75679374,0.74193219 0 0 0 -0.949621,0.721513 l 0,2.211022 a 0.75679374,0.74193219 0 0 0 0.52228,0.698218 c 2.412168,0.821395 4.13082,3.071215 4.13082,5.725432 0,1.393199 -0.565839,2.607912 -1.376934,3.630748 L 25.59401,32.336633 a 0.75679374,0.74193219 0 0 0 -1.305717,0.535315 l 0,6.702923 a 0.75679374,0.74193219 0 0 0 0,0.06984 z"
     id="path4451"
     style="color:#000000;display:inline;overflow:visible;visibility:visible;opacity:0.06300001;fill:#000000;fill-opacity:1;fill-rule:nonzero;stroke:none;stroke-width:1;marker:none;enable-background:accumulate"
     inkscape:connector-curvature="0" />
  <path
     d="m 13.85459,30.637653 c 0,4.159774 2.911941,7.638108 6.837212,8.634688 l 0,-2.211042 C 17.98074,36.138155 16.03871,33.608805 16.03871,30.637653 c 0,-2.066412 0.937365,-3.919572 2.421494,-5.166848 l 2.991291,2.932532 0,-6.702954 -6.837208,0 2.302806,2.257609 c -1.883078,1.631886 -3.062503,4.02119 -3.062503,6.679661 z m 11.395346,8.937241 6.837219,0 -2.682663,-2.629959 c 1.655723,-1.612551 2.682663,-3.837408 2.682663,-6.307282 0,-4.159782 -2.911944,-7.638111 -6.837219,-8.63469 l 0,2.211045 c 2.711051,0.923144 4.653091,3.452498 4.653091,6.423645 0,1.875102 -0.789514,3.563989 -2.041662,4.794468 l -2.611429,-2.560142 0,6.702915 z"
     id="path4285-6"
     style="color:#000000;display:inline;overflow:visible;visibility:visible;opacity:0.2;fill:#000000;fill-opacity:1;fill-rule:nonzero;stroke:none;stroke-width:1;marker:none;enable-background:accumulate"
     inkscape:connector-curvature="0" />
  <path
     d="m 14.235906,30.637643 c 0,4.159775 2.911941,7.638111 6.837212,8.634671 l 0,-2.211017 c -2.711062,-0.923153 -4.653092,-3.452511 -4.653092,-6.423654 0,-2.066395 0.937365,-3.919563 2.421494,-5.166844 l 2.991291,2.932529 0,-6.702944 -6.837208,0 2.302806,2.257596 c -1.883078,1.631894 -3.062503,4.021195 -3.062503,6.679663 z m 11.395346,8.93725 6.837219,0 -2.682663,-2.629962 c 1.655723,-1.612561 2.682663,-3.837413 2.682663,-6.307288 0,-4.159771 -2.911944,-7.638094 -6.837219,-8.634685 l 0,2.211033 c 2.711051,0.923152 4.653091,3.452505 4.653091,6.423652 0,1.875105 -0.789514,3.56397 -2.041662,4.794457 l -2.611429,-2.560132 0,6.702925 z"
     id="path4285"
     style="color:#000000;display:inline;overflow:visible;visibility:visible;fill:#fafafa;fill-opacity:1;fill-rule:nonzero;stroke:none;stroke-width:1;marker:none;enable-background:accumulate"
     inkscape:connector-curvature="0" />
</svg>
